<svg width="1920" height="1080" viewBox="0 0 1920 1080" fill="none" xmlns="http://www.w3.org/2000/svg">
<g opacity="0.7">
<path d="M268.285 988.851C330.477 988.851 380.894 939.404 380.894 878.409C380.894 817.413 330.477 767.966 268.285 767.966C206.094 767.966 155.677 817.413 155.677 878.409C155.677 939.404 206.094 988.851 268.285 988.851Z" fill="#785596" fill-opacity="0.8"/>
<path d="M130.839 553.098C169.41 553.098 200.677 523.527 200.677 487.049C200.677 450.571 169.41 421 130.839 421C92.2678 421 61 450.571 61 487.049C61 523.527 92.2678 553.098 130.839 553.098Z" fill="#785596" fill-opacity="0.8"/>
<path d="M304.017 537.336C355.445 537.336 397.135 496.373 397.135 445.842C397.135 395.311 355.445 354.348 304.017 354.348C252.589 354.348 210.899 395.311 210.899 445.842C210.899 496.373 252.589 537.336 304.017 537.336Z" fill="#785596" fill-opacity="0.8"/>
<path d="M401 757C441.317 757 474 724.764 474 685C474 645.235 441.317 613 401 613C360.683 613 328 645.235 328 685C328 724.764 360.683 757 401 757Z" fill="#785596" fill-opacity="0.8"/>
<path d="M366.056 340.946C395.358 340.946 419.111 317.677 419.111 288.973C419.111 260.269 395.358 237 366.056 237C336.754 237 313 260.269 313 288.973C313 317.677 336.754 340.946 366.056 340.946Z" fill="#785596" fill-opacity="0.8"/>
<path d="M92.0937 848.512C110.931 848.512 126.201 833.484 126.201 814.946C126.201 796.408 110.931 781.38 92.0937 781.38C73.2568 781.38 57.9865 796.408 57.9865 814.946C57.9865 833.484 73.2568 848.512 92.0937 848.512Z" fill="#785596" fill-opacity="0.8"/>
<path d="M94.935 661.704C119.752 661.704 139.87 642.071 139.87 617.852C139.87 593.633 119.752 574 94.935 574C70.1181 574 50 593.633 50 617.852C50 642.071 70.1181 661.704 94.935 661.704Z" fill="#785596" fill-opacity="0.8"/>
<path d="M588.546 379.926C628.611 379.926 661.091 347.931 661.091 308.463C661.091 268.995 628.611 237 588.546 237C548.48 237 516 268.995 516 308.463C516 347.931 548.48 379.926 588.546 379.926Z" fill="#785596" fill-opacity="0.8"/>
<path d="M552.273 913.463C572.306 913.463 588.546 897.465 588.546 877.731C588.546 857.998 572.306 842 552.273 842C532.24 842 516 857.998 516 877.731C516 897.465 532.24 913.463 552.273 913.463Z" fill="#785596" fill-opacity="0.8"/>
<path d="M201.273 747.463C221.306 747.463 237.546 731.465 237.546 711.731C237.546 691.998 221.306 676 201.273 676C181.24 676 165 691.998 165 711.731C165 731.465 181.24 747.463 201.273 747.463Z" fill="#785596" fill-opacity="0.8"/>
<path d="M261 625C273.703 625 284 615.15 284 603C284 590.85 273.703 581 261 581C248.297 581 238 590.85 238 603C238 615.15 248.297 625 261 625Z" fill="#785596" fill-opacity="0.8"/>
<path d="M201 657C213.703 657 224 647.15 224 635C224 622.85 213.703 613 201 613C188.297 613 178 622.85 178 635C178 647.15 188.297 657 201 657Z" fill="#785596" fill-opacity="0.8"/>
<path d="M247 669C259.703 669 270 659.15 270 647C270 634.85 259.703 625 247 625C234.297 625 224 634.85 224 647C224 659.15 234.297 669 247 669Z" fill="#785596" fill-opacity="0.8"/>
<path d="M68.2728 782.463C88.3057 782.463 104.546 766.465 104.546 746.731C104.546 726.998 88.3057 711 68.2728 711C48.2399 711 32 726.998 32 746.731C32 766.465 48.2399 782.463 68.2728 782.463Z" fill="#785596" fill-opacity="0.8"/>
<path d="M516.273 540.463C536.306 540.463 552.546 524.465 552.546 504.731C552.546 484.998 536.306 469 516.273 469C496.24 469 480 484.998 480 504.731C480 524.465 496.24 540.463 516.273 540.463Z" fill="#785596" fill-opacity="0.8"/>
</g>
</svg>
